Coordinates
version=1
nRows=12
nColumns=34
inDegrees=yes

Units are S.I. units (second, meters, Newtons, ...)
If the header above contains a line with 'inDegrees', this indicates whether rotational values are in degrees (yes) or radians (no).

endheader
time	pelvis_tilt	pelvis_list	pelvis_rotation	pelvis_tx	pelvis_ty	pelvis_tz	hip_flexion_r	hip_adduction_r	hip_rotation_r	knee_angle_r	ankle_angle_r	subtalar_angle_r	mtp_angle_r	hip_flexion_l	hip_adduction_l	hip_rotation_l	knee_angle_l	ankle_angle_l	subtalar_angle_l	mtp_angle_l	lumbar_extension	lumbar_bending	lumbar_rotation	arm_flex_r	arm_add_r	arm_rot_r	elbow_flex_r	pro_sup_r	arm_flex_l	arm_add_l	arm_rot_l	elbow_flex_l	pro_sup_l
      3.95000000	      3.96195248	      5.92538368	     -2.12978351	     -0.09230156	      0.45864863	     -0.26966984	     86.87889794	      1.92522444	     -7.20194931	     42.71061877	    -12.01505967	     -0.75491398	      0.00000000	     85.94250125	    -14.52198107	    -29.76344656	     62.53805558	      3.37959677	     -4.84248765	      0.00000000	    -55.22844633	     15.89091294	     -4.82876562	     30.34139296	    -10.76821299	      8.68004362	     51.66192436	     95.11369291	    107.08417456	      5.69188712	     26.35372391	     51.88593044	     72.99761761
      3.96666670	      5.56807202	      5.94994030	     -3.22242334	     -0.10180358	      0.46508308	     -0.26737230	     83.87446753	      2.87285917	     -7.03496984	     40.05985964	    -13.19101136	      0.01450111	      0.00000000	     83.27694647	    -14.82786503	    -30.09857966	     61.20690070	      1.94823150	     -5.32781744	      0.00000000	    -55.80059411	     15.25866197	     -6.05023545	     27.51044827	    -10.28550980	      8.50681645	     52.35538100	     95.34427279	    105.01445838	      4.57120686	     27.14922458	     51.80191156	     72.80222213
      3.98333330	      7.97968303	      5.88037592	     -3.88067417	     -0.11758989	      0.46692862	     -0.26342279	     80.39044050	      3.35707740	     -6.95295120	     37.37256822	    -14.48769892	      0.15619924	      0.00000000	     80.06567472	    -14.66705858	    -30.38322871	     59.25072692	      1.30752965	     -4.78154971	      0.00000000	    -56.91489121	     14.83971780	     -7.28935172	     25.33306933	     -9.72316549	      7.60449278	     53.22142289	     95.68145098	    102.87883736	      3.33703604	     29.11715376	     52.18172571	     72.35330520
      4.00000000	      9.91101265	      5.66623886	     -4.85425500	     -0.11858239	      0.46684731	     -0.26631270	     77.80710907	      4.01561222	     -6.79748331	     35.80131548	    -15.64182818	     -0.10292745	      0.00000000	     77.85397829	    -14.94021353	    -30.23819541	     58.30879984	      1.10893711	     -4.78542729	      0.00000000	    -57.11812863	     14.28461011	     -8.79863786	     22.61411244	     -9.28589764	      7.51156786	     53.38236099	     95.85729403	     99.90187450	      2.59262780	     30.52133495	     52.23293381	     72.10134357
      4.01666670	     11.12755198	      5.46873254	     -5.69765146	     -0.11334630	      0.47480727	     -0.26657245	     75.98545359	      4.63544756	     -7.03453849	     35.28774448	    -15.56522347	      0.24464264	      0.00000000	     76.02656339	    -15.30427452	    -30.33889991	     58.00853769	      2.70906500	     -3.15107869	      0.00000000	    -56.34454916	     14.08401247	     -9.83697459	     19.51054125	     -9.38193484	      7.11169272	     52.85478723	     95.95406148	     95.51872388	      1.98005922	     31.82369265	     52.19409229	     71.91222845
      4.03333330	     12.49117175	      5.22225838	     -6.02582043	     -0.11424059	      0.48051552	     -0.26763280	     73.56796641	      4.63542797	     -7.18909480	     34.13166950	    -14.95063331	      1.93614383	      0.00000000	     74.05840910	    -15.28618124	    -30.59777942	     57.92511765	      4.80927147	     -1.12408600	      0.00000000	    -55.73420787	     14.39249586	    -11.47630676	     17.00296887	     -9.53593998	      6.68329490	     51.68964770	     95.99438995	     91.22571131	      1.44112487	     32.44736701	     51.65035976	     71.69527143
      4.05000000	     13.78834914	      5.22301786	     -6.01045648	     -0.11601610	      0.48491795	     -0.26820305	     71.55182301	      4.40023157	     -7.44673519	     33.13704316	    -14.77893527	      3.14585849	      0.00000000	     72.22256642	    -14.98154641	    -30.88102569	     57.84874279	      5.07855272	     -1.12441138	      0.00000000	    -55.13782064	     14.60474345	    -13.22712609	     14.36124869	     -9.63507366	      5.68958747	     49.57642800	     96.05508378	     85.98828073	      1.04127381	     32.22725036	     52.90530621	     71.24540273
      4.06666670	     15.20100405	      5.18270714	     -6.26519224	     -0.11922024	      0.49025904	     -0.26873744	     69.10305152	      4.59733246	     -7.37126114	     31.83173018	    -14.98408394	      4.69428466	      0.00000000	     69.94514249	    -14.75226427	    -31.49397123	     57.12551673	      5.18992123	     -0.66684612	      0.00000000	    -54.51503048	     14.72411539	    -14.96378984	     12.13016075	    -10.13501483	      5.69953521	     47.28804083	     96.19071705	     80.76317217	      0.68203813	     31.85691458	     53.64941653	     70.92214311
      4.08333330	     16.51604441	      5.33439720	     -6.43825133	     -0.12466868	      0.49062784	     -0.26953408	     67.52278303	      4.56505042	     -6.85994550	     31.28138914	    -14.49016908	      5.13475903	      0.00000000	     68.36463105	    -14.40807795	    -31.85403992	     56.36912282	      5.55223007	     -0.61248885	      0.00000000	    -54.09082608	     14.55866931	    -16.40848612	      9.86446414	    -10.98336380	      5.88011526	     45.68390626	     96.19866884	     76.55793365	      0.71515530	     32.21566373	     53.48246828	     70.90934706
      4.10000000	     18.21655164	      5.44091191	     -5.93501619	     -0.12890476	      0.49485514	     -0.26949208	     65.17982441	      4.21838170	     -6.22181623	     30.03743594	    -14.31993947	      5.81773479	      0.00000000	     66.38039991	    -13.65845812	    -32.11106638	     55.84775412	      5.02440651	     -1.79172580	      0.00000000	    -53.79642377	     14.68102695	    -18.78039962	      8.67920606	    -11.68112607	      6.86685430	     42.84317013	     96.05211954	     71.59854138	     -0.02962568	     32.16343246	     54.34162953	     71.15365416
      4.11666670	     19.38174339	      5.37844433	     -5.56339099	     -0.12865379	      0.49705121	     -0.27076960	     63.41588971	      4.10560286	     -5.95770673	     28.95303503	    -14.12866764	      5.96047939	      0.00000000	     65.20379217	    -13.20609029	    -31.88772526	     55.60420239	      4.96403975	     -2.43742701	      0.00000000	    -53.41971816	     14.62803044	    -19.87611719	      6.55912226	    -13.05201413	      6.80653448	     42.08188978	     96.03436719	     67.49794312	      0.33181595	     33.14154518	     53.92888578	     71.23740707
      4.13333330	     20.36170790	      5.90352618	     -5.68674936	     -0.12798771	      0.49475587	     -0.27133268	     62.66499654	      4.13377097	     -5.07976797	     28.96666449	    -13.60337970	      6.61151036	      0.00000000	     64.40802238	    -13.01673938	    -32.40071103	     55.68151686	      4.70413935	     -3.20722155	      0.00000000	    -51.98787780	     13.81678170	    -23.00465117	      6.36006615	    -14.22102674	      9.84631543	     38.59671418	     95.67662808	     61.91926313	     -1.54540731	     31.86046943	     55.85727364	     72.13410112
